# Blender 5.0.1
# www.blender.org
mtllib Pedals2.mtl
o BMX_Pedals
v -0.075250 1.512554 -0.829247
v 0.220559 1.512554 -0.822966
v -0.075250 1.489195 -0.824600
v 0.220559 1.491599 -0.818798
v -0.075250 1.469393 -0.811369
v 0.220559 1.473834 -0.806927
v -0.075250 1.456161 -0.791566
v 0.220559 1.461964 -0.789163
v -0.075250 1.451515 -0.768208
v 0.220559 1.457796 -0.768208
v -0.075250 1.456161 -0.744849
v 0.220559 1.461964 -0.747253
v -0.075250 1.469393 -0.725047
v 0.220559 1.473834 -0.729488
v -0.075250 1.489195 -0.711815
v 0.220559 1.491599 -0.717618
v -0.075250 1.512554 -0.707169
v 0.220559 1.512554 -0.713450
v -0.075250 1.535912 -0.711815
v 0.220559 1.533509 -0.717618
v -0.075250 1.555715 -0.725047
v 0.220559 1.551273 -0.729488
v -0.075250 1.568946 -0.744849
v 0.220559 1.563143 -0.747253
v -0.075250 1.573593 -0.768208
v 0.220559 1.567312 -0.768208
v -0.075250 1.568946 -0.791566
v 0.220559 1.563143 -0.789163
v -0.075250 1.555715 -0.811369
v 0.220559 1.551273 -0.806927
v -0.075250 1.535912 -0.824600
v 0.220559 1.533509 -0.818798
v -0.040239 1.512554 -0.828434
v -0.040239 1.489506 -0.823849
v -0.040239 1.469967 -0.810794
v -0.040239 1.456912 -0.791255
v -0.040239 1.452327 -0.768208
v -0.040239 1.456912 -0.745160
v -0.040239 1.469967 -0.725621
v -0.040239 1.489506 -0.712566
v -0.040239 1.512554 -0.707982
v -0.040239 1.535601 -0.712566
v -0.040239 1.555140 -0.725621
v -0.040239 1.568195 -0.745160
v -0.040239 1.572780 -0.768208
v -0.040239 1.568195 -0.791255
v -0.040239 1.555140 -0.810794
v -0.040239 1.535601 -0.823849
v -0.072264 1.512554 -0.942292
v -0.072264 1.445934 -0.929040
v -0.037253 1.446220 -0.928351
v -0.072264 1.389458 -0.891304
v -0.037253 1.389985 -0.890776
v -0.072264 1.351721 -0.834827
v -0.037253 1.352410 -0.834541
v -0.072264 1.338470 -0.768208
v -0.037253 1.339216 -0.768208
v -0.072264 1.351721 -0.701589
v -0.037253 1.352410 -0.701874
v -0.072264 1.389458 -0.645112
v -0.037253 1.389985 -0.645639
v -0.072264 1.445934 -0.607375
v -0.037253 1.446220 -0.608064
v -0.072264 1.512554 -0.594124
v -0.037253 1.512554 -0.594870
v -0.072264 1.579173 -0.607375
v -0.037253 1.578887 -0.608064
v -0.072264 1.635650 -0.645112
v -0.037253 1.635122 -0.645639
v -0.072264 1.673386 -0.701589
v -0.037253 1.672697 -0.701874
v -0.072264 1.686638 -0.768208
v -0.037253 1.685891 -0.768208
v -0.072264 1.673386 -0.834827
v -0.037253 1.672697 -0.834541
v -0.072264 1.635650 -0.891304
v -0.037253 1.635122 -0.890776
v -0.072264 1.579173 -0.929041
v -0.037253 1.578887 -0.928351
v -0.037253 1.512554 -0.941545
v -0.100556 1.512554 -0.829247
v -0.100556 1.489195 -0.824600
v -0.100556 1.469393 -0.811369
v -0.100556 1.456161 -0.791566
v -0.100556 1.451515 -0.768208
v -0.100556 1.456161 -0.744849
v -0.100556 1.469393 -0.725047
v -0.100556 1.489195 -0.711815
v -0.100556 1.512554 -0.707169
v -0.100556 1.535912 -0.711815
v -0.100556 1.555715 -0.725047
v -0.100556 1.568946 -0.744849
v -0.100556 1.573593 -0.768208
v -0.100556 1.568946 -0.791566
v -0.100556 1.555715 -0.811369
v -0.100556 1.535912 -0.824600
v -0.101778 1.462502 -0.729401
v -0.101778 1.781409 -0.729401
v -0.101778 1.462502 -0.807015
v -0.101778 1.781409 -0.807015
v 0.221782 1.243699 -0.729401
v 0.221782 1.562605 -0.729401
v 0.221782 1.243699 -0.807015
v 0.221782 1.562605 -0.807015
v -0.151121 1.781409 -0.729401
v -0.151121 1.781409 -0.807015
v 0.271124 1.243699 -0.807015
v 0.271124 1.243699 -0.729401
v -0.101778 1.462502 -0.807015
v -0.151121 1.511845 -0.807015
v -0.126450 1.469113 -0.807015
v -0.144510 1.487174 -0.807015
v -0.151121 1.511845 -0.729401
v -0.101778 1.462502 -0.729401
v -0.144510 1.487174 -0.729401
v -0.126450 1.469113 -0.729401
v 0.221782 1.562605 -0.807015
v 0.271124 1.513263 -0.807015
v 0.246453 1.555994 -0.807015
v 0.264513 1.537934 -0.807015
v 0.271124 1.513263 -0.729401
v 0.221782 1.562605 -0.729401
v 0.264513 1.537934 -0.729401
v 0.246453 1.555994 -0.729401
vn 0.0210 -0.0000 -0.9998
vn 0.0210 -0.3826 -0.9237
vn 0.0210 -0.7070 -0.7070
vn 0.0210 -0.9237 -0.3826
vn 0.0210 -0.9998 -0.0000
vn 0.0210 -0.9237 0.3826
vn 0.0210 -0.7070 0.7070
vn 0.0210 -0.3826 0.9237
vn 0.0210 -0.0000 0.9998
vn 0.0210 0.3826 0.9237
vn 0.0210 0.7070 0.7070
vn 0.0210 0.9237 0.3826
vn 0.0210 0.9998 -0.0000
vn 0.0210 0.9237 -0.3826
vn 0.0210 0.7070 -0.7070
vn 1.0000 -0.0000 -0.0000
vn 0.0210 0.3826 -0.9237
vn -0.0000 -0.9239 -0.3827
vn -0.0000 -1.0000 -0.0000
vn 0.9997 -0.0264 -0.0000
vn 0.9997 -0.0244 0.0101
vn -0.9997 0.0187 -0.0187
vn -0.9997 0.0244 -0.0101
vn -0.9997 -0.0244 0.0101
vn -0.9997 -0.0264 -0.0000
vn 0.9997 -0.0187 0.0187
vn 0.9997 -0.0000 0.0264
vn 0.9997 0.0101 0.0244
vn -0.9997 0.0101 0.0244
vn -0.9997 -0.0000 0.0264
vn 0.9997 -0.0101 0.0244
vn 0.9997 0.0187 0.0187
vn -0.9997 0.0264 -0.0000
vn -0.9997 -0.0244 -0.0101
vn 0.9997 0.0244 0.0101
vn 0.9997 0.0264 -0.0000
vn -0.9997 -0.0101 0.0244
vn 0.9997 0.0244 -0.0101
vn -0.9997 0.0244 0.0101
vn 0.0213 0.3826 -0.9237
vn 0.0213 -0.0000 -0.9998
vn 0.0213 0.7069 -0.7069
vn 0.0213 0.9237 -0.3826
vn 0.0213 0.9998 -0.0000
vn 0.0213 0.9237 0.3826
vn 0.0213 0.7069 0.7069
vn 0.0213 0.3826 0.9237
vn 0.0213 -0.0000 0.9998
vn 0.0213 -0.3826 0.9237
vn 0.0213 -0.7069 0.7069
vn 0.0213 -0.9237 0.3826
vn 0.0213 -0.9998 -0.0000
vn 0.0213 -0.9237 -0.3826
vn 0.0213 -0.7069 -0.7069
vn 0.0213 -0.3826 -0.9237
vn -0.9997 -0.0101 -0.0244
vn -0.9997 -0.0000 -0.0264
vn 0.9997 -0.0244 -0.0101
vn -0.9997 0.0187 0.0187
vn 0.9997 -0.0187 -0.0187
vn -0.9997 -0.0187 0.0187
vn -0.9997 0.0101 -0.0244
vn 0.9997 -0.0101 -0.0244
vn 0.9997 -0.0000 -0.0264
vn -0.9997 -0.0187 -0.0187
vn 0.9997 0.0101 -0.0244
vn 0.9997 0.0187 -0.0187
vn -1.0000 -0.0000 -0.0000
vn -0.0000 -0.0000 1.0000
vn -0.0000 0.3827 0.9239
vn -0.0000 0.9239 -0.3827
vn -0.0000 0.7071 -0.7071
vn -0.0000 -0.3827 -0.9239
vn -0.0000 -0.7071 -0.7071
vn -0.0000 -0.7071 0.7071
vn -0.0000 -0.3827 0.9239
vn -0.0000 0.9239 0.3827
vn -0.0000 1.0000 -0.0000
vn -0.0000 -0.9239 0.3827
vn -0.0000 0.7071 0.7071
vn -0.0000 0.3827 -0.9239
vn -0.0000 -0.0000 -1.0000
vn 0.9914 0.1305 -0.0000
vn -0.9914 -0.1305 -0.0000
vn -0.2588 -0.9659 -0.0000
vn -0.7071 -0.7071 -0.0000
vn -0.8660 -0.5000 -0.0000
vn 0.2588 0.9659 -0.0000
vn 0.5000 0.8660 -0.0000
vn 0.8660 0.5000 -0.0000
vt 0.623594 0.706183
vt 0.653958 0.704941
vt 0.654070 0.707427
vt 0.623717 0.708918
vt 0.654203 0.709913
vt 0.623863 0.711652
vt 0.654355 0.712397
vt 0.624030 0.714384
vt 0.624030 0.670613
vt 0.654355 0.672600
vt 0.654203 0.675084
vt 0.623863 0.673345
vt 0.654070 0.677570
vt 0.623717 0.676079
vt 0.653958 0.680057
vt 0.623594 0.678814
vt 0.653867 0.682544
vt 0.623493 0.681550
vt 0.653796 0.685032
vt 0.623415 0.684286
vt 0.653745 0.687521
vt 0.623359 0.687024
vt 0.653714 0.690009
vt 0.623325 0.689761
vt 0.653704 0.692499
vt 0.623314 0.692499
vt 0.653714 0.694988
vt 0.623325 0.695236
vt 0.653745 0.697477
vt 0.623359 0.697974
vt 0.653796 0.699965
vt 0.623415 0.700711
vt 0.892782 0.744589
vt 0.895081 0.745542
vt 0.896841 0.747302
vt 0.897794 0.749602
vt 0.897794 0.752091
vt 0.896841 0.754390
vt 0.895081 0.756150
vt 0.892782 0.757103
vt 0.890293 0.757103
vt 0.887993 0.756150
vt 0.886233 0.754390
vt 0.885280 0.752091
vt 0.885280 0.749602
vt 0.886233 0.747302
vt 0.887993 0.745542
vt 0.890293 0.744589
vt 0.653867 0.702453
vt 0.623493 0.703447
vt 0.651853 0.666375
vt 0.651853 0.663600
vt 0.654801 0.663600
vt 0.654801 0.666375
vt 0.609750 0.945582
vt 0.608703 0.948111
vt 0.595775 0.945540
vt 0.598790 0.938259
vt 0.566313 0.939950
vt 0.563749 0.941011
vt 0.556430 0.930058
vt 0.563742 0.927029
vt 0.571649 0.952836
vt 0.573611 0.950874
vt 0.584565 0.958192
vt 0.578969 0.963789
vt 0.608703 0.950848
vt 0.595775 0.953420
vt 0.611686 0.955313
vt 0.614215 0.956361
vt 0.611643 0.969289
vt 0.604363 0.966273
vt 0.561787 0.950873
vt 0.563749 0.952835
vt 0.556430 0.963789
vt 0.550834 0.958193
vt 0.609750 0.953377
vt 0.598790 0.960701
vt 0.616952 0.956361
vt 0.619524 0.969289
vt 0.561788 0.942973
vt 0.550834 0.935654
vt 0.574673 0.948311
vt 0.587593 0.950881
vt 0.619481 0.955313
vt 0.626804 0.966273
vt 0.621416 0.953378
vt 0.632377 0.960701
vt 0.566312 0.953897
vt 0.563742 0.966818
vt 0.622464 0.950849
vt 0.635392 0.953420
vt 0.560726 0.945536
vt 0.547805 0.942966
vt 0.987618 0.540396
vt 0.991697 0.540294
vt 0.991926 0.548170
vt 0.987849 0.548306
vt 0.987454 0.532484
vt 0.991533 0.532417
vt 0.987355 0.524572
vt 0.991435 0.524538
vt 0.987322 0.516659
vt 0.991402 0.516659
vt 0.987355 0.508745
vt 0.991435 0.508779
vt 0.987454 0.500833
vt 0.991533 0.500901
vt 0.987618 0.492921
vt 0.991697 0.493023
vt 0.987849 0.485011
vt 0.991926 0.485147
vt 0.988145 0.477104
vt 0.992221 0.477273
vt 0.988506 0.469199
vt 0.992581 0.469402
vt 0.988934 0.461297
vt 0.993007 0.461534
vt 0.989427 0.453399
vt 0.993498 0.453671
vt 0.988934 0.572020
vt 0.993007 0.571783
vt 0.993498 0.579647
vt 0.989427 0.579918
vt 0.988506 0.564118
vt 0.992581 0.563915
vt 0.988145 0.556213
vt 0.992221 0.556044
vt 0.573611 0.942973
vt 0.571650 0.941012
vt 0.578969 0.930058
vt 0.584565 0.935654
vt 0.611686 0.943646
vt 0.604363 0.932687
vt 0.560726 0.948310
vt 0.547805 0.950881
vt 0.614215 0.942599
vt 0.611643 0.929671
vt 0.569086 0.953897
vt 0.571656 0.966818
vt 0.569087 0.939950
vt 0.571657 0.927029
vt 0.616952 0.942599
vt 0.619524 0.929671
vt 0.619481 0.943647
vt 0.626804 0.932687
vt 0.574673 0.945537
vt 0.587593 0.942966
vt 0.621417 0.945582
vt 0.632377 0.938259
vt 0.622464 0.948112
vt 0.635392 0.945540
vt 0.960127 0.093003
vt 0.957564 0.094065
vt 0.954789 0.094065
vt 0.952226 0.093003
vt 0.950264 0.091041
vt 0.949202 0.088478
vt 0.949202 0.085703
vt 0.950264 0.083140
vt 0.952226 0.081178
vt 0.954789 0.080116
vt 0.957564 0.080116
vt 0.960127 0.081178
vt 0.962089 0.083140
vt 0.963151 0.085703
vt 0.963151 0.088478
vt 0.962089 0.091041
vt 0.651853 0.652502
vt 0.651853 0.649727
vt 0.654801 0.649727
vt 0.654801 0.652502
vt 0.651853 0.638629
vt 0.651853 0.635854
vt 0.654801 0.635854
vt 0.654801 0.638629
vt 0.651853 0.627530
vt 0.651853 0.624756
vt 0.654801 0.624756
vt 0.654801 0.627530
vt 0.651853 0.658051
vt 0.651853 0.655276
vt 0.654801 0.655276
vt 0.654801 0.658051
vt 0.651853 0.644178
vt 0.651853 0.641403
vt 0.654801 0.641403
vt 0.654801 0.644178
vt 0.651853 0.660825
vt 0.654801 0.660825
vt 0.651853 0.646953
vt 0.654801 0.646953
vt 0.651853 0.633079
vt 0.654801 0.633079
vt 0.651853 0.621981
vt 0.654801 0.621981
vt 0.651853 0.630305
vt 0.654801 0.630305
vt 0.814069 0.717339
vt 0.814069 0.708394
vt 0.850822 0.708394
vt 0.850822 0.717339
vt 0.977850 0.665259
vt 0.966926 0.665515
vt 0.968122 0.633407
vt 0.977441 0.633994
vt 0.814075 0.707753
vt 0.814886 0.704923
vt 0.817004 0.702878
vt 0.819860 0.702166
vt 0.850922 0.702708
vt 0.967725 0.633185
vt 0.977850 0.633771
vt 0.970708 0.581582
vt 0.980834 0.582168
vt 0.980462 0.588605
vt 0.970336 0.588020
vt 0.850922 0.723025
vt 0.819855 0.723568
vt 0.816998 0.722855
vt 0.814881 0.720810
vt 0.814069 0.717980
vt 0.980286 0.634424
vt 0.982070 0.636207
vt 0.982722 0.638643
vt 0.982722 0.665259
vt 0.961924 0.665391
vt 0.962599 0.638064
vt 0.963331 0.635580
vt 0.965207 0.633794
vt 0.978428 0.623774
vt 0.968302 0.623189
vt 0.768336 0.717339
vt 0.768336 0.708396
vt 0.774022 0.708396
vt 0.774022 0.717339
vt 0.805084 0.717339
vt 0.805084 0.708396
vt 0.813913 0.708395
vt 0.813913 0.717339
vt 0.810970 0.717339
vt 0.810970 0.708395
vt 0.808027 0.717339
vt 0.808027 0.708395
vt 0.967917 0.629853
vt 0.978043 0.630439
vt 0.968110 0.626521
vt 0.978236 0.627106
s 1
usemtl Low_Poly_Cycles_(BMX,_Mountain_Bike,_Unicycle)_1
f 33/1/1 2/2/1 4/3/2 34/4/2
f 34/4/2 4/3/2 6/5/3 35/6/3
f 35/6/3 6/5/3 8/7/4 36/8/4
f 36/9/4 8/10/4 10/11/5 37/12/5
f 37/12/5 10/11/5 12/13/6 38/14/6
f 38/14/6 12/13/6 14/15/7 39/16/7
f 39/16/7 14/15/7 16/17/8 40/18/8
f 40/18/8 16/17/8 18/19/9 41/20/9
f 41/20/9 18/19/9 20/21/10 42/22/10
f 42/22/10 20/21/10 22/23/11 43/24/11
f 43/24/11 22/23/11 24/25/12 44/26/12
f 44/26/12 24/25/12 26/27/13 45/28/13
f 45/28/13 26/27/13 28/29/14 46/30/14
f 46/30/14 28/29/14 30/31/15 47/32/15
f 4/33/16 2/34/16 32/35/16 30/36/16 28/37/16 26/38/16 24/39/16 22/40/16 20/41/16 18/42/16 16/43/16 14/44/16 12/45/16 10/46/16 8/47/16 6/48/16
f 47/32/15 30/31/15 32/49/17 48/50/17
f 48/50/17 32/49/17 2/2/1 33/1/1
f 7/51/18 9/52/19 85/53/19 84/54/18
f 45/55/20 46/56/21 75/57/21 73/58/20
f 29/59/22 27/60/23 74/61/23 76/62/22
f 11/63/24 9/64/25 56/65/25 58/66/24
f 46/56/21 47/67/26 77/68/26 75/57/21
f 33/69/27 34/70/28 51/71/28 80/72/27
f 19/73/29 17/74/30 64/75/30 66/76/29
f 47/67/26 48/77/31 79/78/31 77/68/26
f 34/70/28 35/79/32 53/80/32 51/71/28
f 48/77/31 33/69/27 80/72/27 79/78/31
f 27/60/23 25/81/33 72/82/33 74/61/23
f 9/64/25 7/83/34 54/84/34 56/65/25
f 35/79/32 36/85/35 55/86/35 53/80/32
f 36/85/35 37/87/36 57/88/36 55/86/35
f 17/74/30 15/89/37 62/90/37 64/75/30
f 37/87/36 38/91/38 59/92/38 57/88/36
f 25/81/33 23/93/39 70/94/39 72/82/33
f 78/95/40 79/96/40 80/97/41 49/98/41
f 76/99/42 77/100/42 79/96/40 78/95/40
f 74/101/43 75/102/43 77/100/42 76/99/42
f 72/103/44 73/104/44 75/102/43 74/101/43
f 70/105/45 71/106/45 73/104/44 72/103/44
f 68/107/46 69/108/46 71/106/45 70/105/45
f 66/109/47 67/110/47 69/108/46 68/107/46
f 64/111/48 65/112/48 67/110/47 66/109/47
f 62/113/49 63/114/49 65/112/48 64/111/48
f 60/115/50 61/116/50 63/114/49 62/113/49
f 58/117/51 59/118/51 61/116/50 60/115/50
f 56/119/52 57/120/52 59/118/51 58/117/51
f 54/121/53 55/122/53 57/123/52 56/124/52
f 52/125/54 53/126/54 55/122/53 54/121/53
f 50/127/55 51/128/55 53/126/54 52/125/54
f 49/98/41 80/97/41 51/128/55 50/127/55
f 3/129/56 1/130/57 49/131/57 50/132/56
f 44/133/58 45/55/20 73/58/20 71/134/58
f 21/135/59 19/73/29 66/76/29 68/136/59
f 43/137/60 44/133/58 71/134/58 69/138/60
f 13/139/61 11/63/24 58/66/24 60/140/61
f 31/141/62 29/59/22 76/62/22 78/142/62
f 42/143/63 43/137/60 69/138/60 67/144/63
f 41/145/64 42/143/63 67/144/63 65/146/64
f 5/147/65 3/129/56 50/132/56 52/148/65
f 23/93/39 21/135/59 68/136/59 70/94/39
f 40/149/66 41/145/64 65/146/64 63/150/66
f 15/89/37 13/139/61 60/140/61 62/90/37
f 1/130/57 31/141/62 78/142/62 49/131/57
f 39/151/67 40/149/66 63/150/66 61/152/67
f 38/91/38 39/151/67 61/152/67 59/92/38
f 7/83/34 5/147/65 52/148/65 54/84/34
f 81/153/68 82/154/68 83/155/68 84/156/68 85/157/68 86/158/68 87/159/68 88/160/68 89/161/68 90/162/68 91/163/68 92/164/68 93/165/68 94/166/68 95/167/68 96/168/68
f 17/169/69 19/170/70 90/171/70 89/172/69
f 27/173/71 29/174/72 95/175/72 94/176/71
f 3/177/73 5/178/74 83/179/74 82/180/73
f 13/181/75 15/182/76 88/183/76 87/184/75
f 23/185/77 25/186/78 93/187/78 92/188/77
f 9/52/19 11/189/79 86/190/79 85/53/19
f 19/170/70 21/191/80 91/192/80 90/171/70
f 29/174/72 31/193/81 96/194/81 95/175/72
f 5/178/74 7/195/18 84/196/18 83/179/74
f 15/182/76 17/169/69 89/172/69 88/183/76
f 1/197/82 3/177/73 82/180/73 81/198/82
f 25/186/78 27/173/71 94/176/71 93/187/78
f 11/189/79 13/181/75 87/184/75 86/190/79
f 21/191/80 23/185/77 92/188/77 91/192/80
f 31/193/81 1/197/82 81/198/82 96/194/81
f 97/199/16 99/200/16 100/201/16 98/202/16
f 103/203/68 101/204/68 102/205/68 104/206/68
f 100/201/82 99/200/82 109/207/82 111/208/82 112/209/82 110/210/82 106/211/82
f 104/206/16 102/205/16 122/212/16 117/213/16
f 101/214/19 103/215/19 107/216/19 108/217/19
f 97/199/69 98/202/69 105/218/69 113/219/69 115/220/69 116/221/69 114/222/69
f 103/203/82 104/206/82 117/213/82 119/223/82 120/224/82 118/225/82 107/226/82
f 102/205/69 101/204/69 108/227/69 121/228/69 123/229/69 124/230/69 122/212/69
f 107/216/16 118/231/83 121/232/83 108/217/16
f 98/233/78 100/234/78 106/235/78 105/236/78
f 113/237/84 105/236/68 106/235/68 110/238/84
f 109/239/85 114/240/85 116/241/85 111/242/85
f 111/242/86 116/241/86 115/243/87 112/244/87
f 112/244/87 115/243/87 113/237/84 110/238/84
f 117/213/88 122/212/88 124/245/89 119/246/89
f 119/246/89 124/245/89 123/247/90 120/248/90
f 120/248/90 123/247/90 121/232/83 118/231/83
f 99/200/16 97/199/16 114/240/16 109/239/16
